<?xml version="1.0" standalone="no"?>
<!DOCTYPE svg PUBLIC "-//W3C//DTD SVG 20010904//EN"
 "http://www.w3.org/TR/2001/REC-SVG-20010904/DTD/svg10.dtd">
<svg version="1.0" xmlns="http://www.w3.org/2000/svg"
 width="300.000000pt" height="300.000000pt" viewBox="0 0 300.000000 300.000000"
 preserveAspectRatio="xMidYMid meet">
<metadata>
Created by potrace 1.10, written by Peter Selinger 2001-2011
</metadata>
<g transform="translate(0.000000,300.000000) scale(0.100000,-0.100000)"
fill="#000000" stroke="none">
<path d="M1009 2715 c-318 -60 -574 -305 -649 -619 -24 -98 -26 -260 -6 -357
18 -82 58 -183 104 -264 50 -85 199 -230 292 -282 289 -162 636 -142 899 52
l62 46 25 -20 c13 -10 51 -44 84 -74 50 -47 57 -57 45 -67 -28 -24 -17 -57 38
-108 28 -27 195 -180 371 -341 223 -204 325 -291 341 -291 16 0 47 26 104 90
45 50 81 97 81 106 0 20 2 18 -403 389 -186 171 -348 311 -359 313 -11 2 -28
-4 -38 -13 -18 -16 -23 -14 -100 56 -44 40 -80 75 -80 78 0 3 9 20 21 36 40
60 89 166 111 242 33 112 33 324 0 436 -67 235 -230 427 -446 527 -44 21 -108
46 -141 55 -86 23 -263 28 -356 10z m231 -26 c47 -6 109 -17 139 -25 55 -16
181 -76 235 -113 54 -37 156 -144 199 -210 96 -146 131 -263 131 -436 0 -150
-23 -238 -100 -383 -30 -57 -54 -109 -54 -117 0 -15 111 -126 155 -155 22 -14
33 -16 57 -8 37 13 54 1 209 -142 227 -209 244 -225 249 -230 3 -3 59 -54 125
-114 145 -131 165 -152 165 -175 0 -9 -28 -48 -63 -85 -75 -79 -74 -79 -168 7
-35 33 -104 96 -153 140 -118 107 -215 198 -360 332 -113 105 -117 110 -111
142 8 42 -8 66 -91 138 -81 71 -99 75 -158 30 -152 -116 -333 -172 -523 -162
-133 7 -202 25 -318 82 -194 97 -337 269 -402 485 -21 70 -25 107 -26 210 -1
142 9 197 61 315 68 157 185 291 315 364 20 12 53 30 73 41 42 24 157 56 234
65 30 4 56 8 58 9 5 6 41 4 122 -5z"/>
<path d="M1087 2624 c-1 -1 -23 -5 -49 -8 -255 -34 -498 -252 -574 -516 -14
-50 -19 -97 -19 -200 1 -125 3 -141 32 -223 43 -121 85 -187 180 -283 68 -69
97 -90 175 -127 121 -58 208 -79 329 -79 228 0 425 96 565 275 169 216 201
507 83 754 -40 83 -121 190 -177 233 -25 19 -51 41 -58 48 -31 30 -186 94
-275 113 -73 15 -201 23 -212 13z m290 -68 c313 -102 518 -441 460 -761 -20
-108 -50 -182 -108 -270 -123 -183 -313 -292 -531 -303 -114 -5 -192 7 -297
49 -240 96 -407 327 -427 593 -9 115 14 225 73 346 39 80 59 108 132 180 97
97 207 160 321 185 103 23 275 14 377 -19z"/>
<path d="M1060 2477 c-83 -19 -149 -56 -211 -117 -63 -63 -92 -112 -114 -197
-40 -155 5 -310 141 -482 35 -45 64 -83 64 -86 0 -3 -51 -4 -112 -3 l-112 3
-19 63 c-16 52 -22 62 -41 62 -23 0 -23 0 18 -135 l41 -135 176 0 176 0 -37
73 c-91 173 -135 369 -128 562 10 238 89 346 256 346 83 0 124 -15 174 -66 60
-60 80 -128 86 -278 3 -77 0 -160 -8 -205 -16 -102 -63 -248 -111 -347 -22
-43 -39 -80 -39 -82 0 -2 78 -3 173 -3 l172 0 41 135 c41 134 41 135 19 135
-19 0 -25 -10 -41 -65 l-19 -65 -112 0 c-62 0 -113 3 -113 6 0 3 20 29 44 57
110 130 165 246 173 367 10 142 -33 256 -130 346 -32 30 -72 61 -89 70 -86 44
-225 62 -318 41z m-129 -130 c-77 -136 -86 -349 -24 -614 10 -41 -14 -24 -55
40 -44 69 -70 121 -77 155 -2 12 -7 27 -10 32 -9 14 -9 161 -1 191 26 90 80
170 149 220 22 16 42 29 44 29 3 0 -9 -24 -26 -53z m528 -22 c134 -141 141
-341 20 -533 -68 -107 -81 -113 -58 -27 25 94 37 207 34 310 -3 122 -23 211
-60 267 -30 45 -30 48 -5 41 10 -3 41 -29 69 -58z m-476 -806 l2 -33 -112 0
c-120 1 -146 10 -141 48 3 19 11 21 105 26 56 3 105 8 109 13 13 13 36 -19 37
-54z m510 41 c51 0 96 -3 100 -6 10 -11 -15 -64 -31 -65 -59 -4 -204 -3 -221
1 -20 5 -20 5 -1 48 17 38 22 42 39 32 11 -5 62 -10 114 -10z"/>
</g>
</svg>
